<svg width="22" height="17" viewBox="0 0 22 17" fill="none" xmlns="http://www.w3.org/2000/svg">
<path d="M2.375 16H19.625M2.375 16C2.07663 16 1.79048 15.8815 1.5795 15.6705C1.36853 15.4595 1.25 15.1734 1.25 14.875M2.375 16H3.875C4.496 16 5 15.496 5 14.875M19.625 16C20.246 16 20.75 15.496 20.75 14.875M19.625 16H18.125C17.8266 16 17.5405 15.8815 17.3295 15.6705C17.1185 15.4595 17 15.1734 17 14.875M1.25 14.875V2.125M1.25 14.875V13.375C1.25 12.754 1.754 12.25 2.375 12.25M5 14.875V9.625M5 14.875C5 15.496 5.504 16 6.125 16H15.875C16.496 16 17 15.496 17 14.875M5 14.875V13.375C5 12.754 4.496 12.25 3.875 12.25M1.25 2.125C1.25 1.504 1.754 1 2.375 1M1.25 2.125V3.625C1.25 4.246 1.754 4.75 2.375 4.75M2.375 12.25C1.754 12.25 1.25 11.746 1.25 11.125V9.625C1.25 9.004 1.754 8.5 2.375 8.5M2.375 12.25H3.875M20.75 14.875V2.125M20.75 14.875V13.375C20.75 12.754 20.246 12.25 19.625 12.25M20.75 2.125C20.75 1.504 20.246 1 19.625 1M20.75 2.125V3.625C20.75 4.246 20.246 4.75 19.625 4.75M19.625 12.25C20.246 12.25 20.75 11.746 20.75 11.125V9.625C20.75 9.004 20.246 8.5 19.625 8.5M19.625 12.25H18.125M17 14.875V9.625M17 14.875V13.375C17 12.754 17.504 12.25 18.125 12.25M19.625 1H2.375M19.625 1H18.125C17.504 1 17 1.504 17 2.125M2.375 1H3.875C4.496 1 5 1.504 5 2.125M17 2.125C17 1.504 16.496 1 15.875 1H6.125C5.504 1 5 1.504 5 2.125M17 2.125V3.625C17 3.92337 17.1185 4.20952 17.3295 4.4205C17.5405 4.63147 17.8266 4.75 18.125 4.75M17 2.125V7.375M19.625 4.75H18.125M19.625 4.75C20.246 4.75 20.75 5.254 20.75 5.875V7.375C20.75 7.996 20.246 8.5 19.625 8.5M5 2.125V3.625C5 4.246 4.496 4.75 3.875 4.75M5 2.125V7.375M2.375 4.75H3.875M2.375 4.75C1.754 4.75 1.25 5.254 1.25 5.875V7.375C1.25 7.996 1.754 8.5 2.375 8.5M3.875 4.75C4.496 4.75 5 5.254 5 5.875V7.375M2.375 8.5H3.875M5 7.375C5 7.67337 5.11853 7.95952 5.3295 8.1705C5.54048 8.38147 5.82663 8.5 6.125 8.5M5 7.375C5 7.996 4.496 8.5 3.875 8.5M18.125 4.75C17.504 4.75 17 5.254 17 5.875V7.375M17 7.375C17 7.996 16.496 8.5 15.875 8.5M17 7.375C17 7.996 17.504 8.5 18.125 8.5M19.625 8.5H18.125M6.125 8.5H15.875M6.125 8.5C5.504 8.5 5 9.004 5 9.625M15.875 8.5C16.496 8.5 17 9.004 17 9.625M5 9.625V11.125C5 11.746 4.496 12.25 3.875 12.25M5 9.625C5 9.004 4.496 8.5 3.875 8.5M18.125 8.5C17.504 8.5 17 9.004 17 9.625M17 9.625V11.125C17 11.746 17.504 12.25 18.125 12.25" stroke="#999999" stroke-width="1.5" stroke-linecap="round" stroke-linejoin="round"/>
</svg>
