<svg width="16" height="18" viewBox="0 0 16 18" fill="none" xmlns="http://www.w3.org/2000/svg">
<path d="M0.75 2.65296C0.75 1.79696 1.667 1.25496 2.417 1.66696L13.957 8.01496C14.1334 8.11207 14.2805 8.25475 14.3829 8.42809C14.4854 8.60144 14.5394 8.7991 14.5394 9.00046C14.5394 9.20181 14.4854 9.39948 14.3829 9.57282C14.2805 9.74617 14.1334 9.88884 13.957 9.98596L2.417 16.333C2.24576 16.4271 2.05295 16.475 1.85756 16.472C1.66217 16.469 1.47094 16.4151 1.3027 16.3157C1.13446 16.2163 0.995016 16.0748 0.898102 15.9051C0.801187 15.7354 0.750144 15.5434 0.75 15.348V2.65296Z" stroke="black" stroke-width="1.5" stroke-linecap="round" stroke-linejoin="round"/>
</svg>
